<?xml version="1.0" encoding="UTF-8"?>
<svg width="24px" height="25px" viewBox="0 0 24 25" version="1.1" xmlns="http://www.w3.org/2000/svg" xmlns:xlink="http://www.w3.org/1999/xlink">
    <title>icon / line / whatsapp</title>
    <g id="Tenant" stroke="none" stroke-width="1" fill="none" fill-rule="evenodd">
        <g id="icon-/-line-/-whatsapp" transform="translate(0.000000, 0.500000)" fill="#0F866C">
            <path d="M24.0000101,11.6909318 C24.0000101,18.1477299 18.725617,23.3818612 12.2181488,23.3818612 C10.1522806,23.3818612 8.21147998,22.8538609 6.52294572,21.9271956 L1.00868981e-05,24.0000024 L2.12667765,17.7274628 C1.05387719,15.9658637 0.43601027,13.8997317 0.43601027,11.6909318 C0.43601027,5.2341341 5.71094556,2.41042011e-06 12.2181488,2.41042011e-06 C18.7261506,2.41042011e-06 24.0000101,5.2341341 24.0000101,11.6909318 Z M12.2181488,1.86186853 C6.75574644,1.86186853 2.31254436,6.27120021 2.31254436,11.6909325 C2.31254436,13.8415971 3.01361139,15.8333297 4.19947822,17.4535957 L2.96187802,21.1039949 L6.76854594,19.8941283 C8.33254631,20.9210611 10.2061473,21.5199948 12.2184149,21.5199948 C17.6800175,21.5199948 22.1240187,17.1111956 22.1240187,11.6914654 C22.1240187,6.27173379 17.6802836,1.86186853 12.2181488,1.86186853 Z M17.6141511,14.0490642 C17.9026838,14.1922641 18.0949517,14.2642646 18.1677504,14.3834634 C18.2394849,14.5029311 18.2394849,15.0765291 17.9994837,15.7463975 C17.7578831,16.415196 16.5786839,17.0605283 16.0496164,17.1082616 C15.9589091,17.1164828 15.8837372,17.1345215 15.8066884,17.1530109 C15.4338799,17.2424736 15.0171061,17.3424864 12.5837489,16.3919959 C9.64774711,15.2445298 7.79467972,12.2567978 7.65041335,12.0658646 C7.5056134,11.8749321 6.4712127,10.5125323 6.4712127,9.10239914 C6.4712127,7.69253352 7.21707995,6.99920037 7.48161299,6.71226695 C7.74641283,6.42560032 8.05948026,6.35386732 8.25201352,6.35386732 C8.44454677,6.35386732 8.63734682,6.37786701 8.80561359,6.37786701 C8.82580383,6.37786701 8.84701617,6.37650087 8.86912973,6.37507751 C9.03189404,6.36459759 9.24345024,6.35097625 9.45521386,6.85573366 C9.69574721,7.42959979 10.2738806,8.83973291 10.3458811,8.98293283 C10.4184144,9.12666633 10.4666806,9.29386595 10.3698807,9.48506596 C10.2741481,9.67653206 10.2261472,9.79573229 10.0813473,9.9631994 C9.93708093,10.130399 9.77814682,10.3365329 9.6480139,10.4650657 C9.50374754,10.6077321 9.35308035,10.7626651 9.52134712,11.0493324 C9.68988068,11.3365319 10.2696141,12.2741313 11.1280146,13.0335984 C12.2312151,14.0095964 13.1616154,14.3125301 13.4501496,14.45573 C13.7392159,14.599196 13.9074813,14.5751977 14.0760155,14.3834634 C14.2448159,14.1922641 14.7984153,13.5471978 14.9906817,13.260263 C15.1829496,12.9735971 15.3760157,13.0215965 15.6408163,13.1170631 C15.9048157,13.2122636 17.3250833,13.9058643 17.6141511,14.0490642 Z" id="Shape"></path>
        </g>
    </g>
</svg>